<svg xmlns="http://www.w3.org/2000/svg" viewBox="0 0 207.43 69.34"><title>logo_joy</title><polygon points="24.68 22.68 17.3 11.01 0.71 1.48 4.09 18.07 12.7 32.52 12.7 38.35 4.71 46.96 5.01 52.18 16.38 66.93 21.61 68.77 24.68 66.01 24.68 22.68" fill="none" stroke="#fff" stroke-miterlimit="10"/><polyline points="9.95 6.37 4.42 18.07 24.39 22.99 13.09 32.25 24.39 37.12 5.01 52.18" fill="none" stroke="#fff" stroke-miterlimit="10"/><line x1="21.61" y1="68.77" x2="14.69" y2="44.65" fill="none" stroke="#fff" stroke-miterlimit="10"/><polygon points="24.68 60.17 21.61 58.63 23.14 56.1 24.68 58.13 24.68 60.17" fill="none" stroke="#fff" stroke-miterlimit="10"/><polygon points="24.61 22.68 31.98 11.01 48.57 1.48 45.19 18.07 36.59 32.52 36.59 38.35 44.58 46.96 44.27 52.18 32.9 66.93 27.68 68.77 24.61 66.01 24.61 22.68" fill="none" stroke="#fff" stroke-miterlimit="10"/><polyline points="39.34 6.37 44.86 18.07 24.89 22.99 36.15 32.18 24.89 37.12 44.27 52.18" fill="none" stroke="#fff" stroke-miterlimit="10"/><line x1="27.68" y1="68.77" x2="34.59" y2="44.65" fill="none" stroke="#fff" stroke-miterlimit="10"/><polygon points="24.61 60.17 27.68 58.63 26.14 56.1 24.61 58.13 24.61 60.17" fill="none" stroke="#fff" stroke-miterlimit="10"/><path d="M75.62,1.85h7.77V46.59c0,17.76-7.86,23.21-18.21,23.21a22.81,22.81,0,0,1-8.31-1.59l1.16-7a16.81,16.81,0,0,0,6.52,1.29c7,0,11.07-3.47,11.07-16.57Z" transform="translate(-0.06 -0.76)" fill="#fff"/><path d="M153.12,34.59c0,23-12.59,35.21-27.95,35.21-15.89,0-27-13.69-27-33.92C98.12,14.65,110,.76,126.07.76,142.49.76,153.12,14.75,153.12,34.59Zm-46.7,1.09c0,14.28,7,27.08,19.2,27.08S144.9,50.16,144.9,35c0-13.29-6.25-27.18-19.19-27.18S106.42,21,106.42,35.68Z" transform="translate(-0.06 -0.76)" fill="#fff"/><path d="M179.46,68.71V40.34l-19-38.49h8.84l8.48,18.45c2.32,5.06,4.11,9.13,6,13.79h.18c1.7-4.36,3.75-8.73,6.07-13.79l8.66-18.45h8.84L187.31,40.24V68.71Z" transform="translate(-0.06 -0.76)" fill="#fff"/></svg>